<svg width="61" height="61" viewBox="0 0 61 61" fill="none" xmlns="http://www.w3.org/2000/svg">
<path d="M17.1266 15.5625H12.2388V42.7779H17.1266V31.008C17.6271 28.0988 19.4988 27.2411 20.3721 27.176C22.9685 26.4878 24.0347 28.5837 24.2433 29.7176V42.7779H29.3266V31.008C29.3266 27.6296 28.727 26.3418 28.4272 26.1202C23.4847 20.9274 18.8341 23.9565 17.1266 26.1202V15.5625Z" fill="#FEB250" stroke="#FEB250"/>
<path d="M36.8734 15.5625H31.9856V42.7779H36.8734V31.008C37.3739 28.0988 39.2456 27.2411 40.1189 27.176C42.7153 26.4878 43.7815 28.5837 43.9901 29.7176V42.7779H49.0734V31.008C49.0734 27.6296 48.4738 26.3418 48.1741 26.1202C43.2315 20.9274 38.5809 23.9565 36.8734 26.1202V15.5625Z" fill="#FEB250" stroke="#FEB250"/>
<circle cx="30.5" cy="30.5" r="28" stroke="#FEB250" stroke-width="5"/>
</svg>
