<svg width="61" height="61" viewBox="0 0 61 61" fill="none" xmlns="http://www.w3.org/2000/svg">
<path d="M18.6273 13.0466L13.3514 18.3225C11.9279 20.4952 13.9446 26.075 15.1309 28.5932C20.1257 37.584 28.6587 43.6819 32.3008 45.607C35.7472 47.4551 39.0439 48.0628 40.2614 48.1357C41.4601 48.2855 42.3426 47.7611 42.6339 47.4801L47.941 42.173C48.4904 41.6736 48.0451 41.2781 47.7537 41.1429C45.6621 40.0814 41.2354 37.79 40.2614 37.1157C39.2874 36.4414 38.5652 36.9596 38.3258 37.303L36.6401 38.9888C35.6161 39.9878 34.2363 39.6132 33.6744 39.301C27.9053 36.7037 23.6326 31.0802 22.2174 28.5932C20.8438 26.3455 21.2912 24.9927 21.6866 24.5973L24.1841 22.0374C24.6586 21.513 24.3818 20.8824 24.1841 20.6326L19.8136 13.0466C19.364 12.3723 18.8354 12.7657 18.6273 13.0466Z" fill="#FEB250"/>
<path d="M29.4075 15.6715V13.1741C43.5929 14.173 47.8469 26.14 48.2007 31.9985H45.7657C44.4171 19.5863 34.2983 15.9421 29.4075 15.6715Z" fill="#FEB250"/>
<path d="M29.4075 21.6651V19.1989C39.0215 19.8748 42.1232 28.0654 42.3629 32.0295H39.8343C38.3983 23.663 32.4356 22.0709 29.4075 21.6651Z" fill="#FEB250"/>
<path d="M29.4075 27.1596V25.0367C34.2261 25.3755 36.2801 30.0427 36.4003 32.0296H34.3399C32.779 27.9088 30.8123 27.6903 29.4075 27.1596Z" fill="#FEB250"/>
<circle cx="30.5" cy="30.5" r="27.5" stroke="#FEB250" stroke-width="6"/>
</svg>
