<svg width="38" height="30" viewBox="0 0 38 30" fill="none" xmlns="http://www.w3.org/2000/svg">
<path fill-rule="evenodd" clip-rule="evenodd" d="M8.2377 5.65574H3.44262C0.688525 5.95082 0 7.9918 0 8.97541V26.8033C0.590164 29.3607 2.62295 30 3.56557 30H33.9344C36.1967 29.8033 37.1721 27.7869 37.377 26.8033V8.85246C37.082 6.59016 35.1229 5.77869 34.1803 5.65574H29.2623C28.377 5.65574 27.8279 4.83607 27.6639 4.42623L26.4344 0.860656C26.1393 0.270492 25.4918 0.0409836 25.2049 0H12.1721C11.2869 0.0983607 10.9836 0.614754 10.9426 0.860656C10.6557 1.68033 10.0082 3.54098 9.71311 4.42623C9.41803 5.31148 8.60656 5.61475 8.2377 5.65574ZM33.6885 10.6967C33.6885 11.4437 33.083 12.0492 32.3361 12.0492C31.5891 12.0492 30.9836 11.4437 30.9836 10.6967C30.9836 9.94978 31.5891 9.34426 32.3361 9.34426C33.083 9.34426 33.6885 9.94978 33.6885 10.6967ZM18.5656 26.3115C23.7942 26.3115 28.0328 22.0729 28.0328 16.8443C28.0328 11.6157 23.7942 7.37705 18.5656 7.37705C13.337 7.37705 9.09836 11.6157 9.09836 16.8443C9.09836 22.0729 13.337 26.3115 18.5656 26.3115Z" fill="#FF9000"/>
<circle cx="18.6885" cy="16.9673" r="5.65574" fill="#FF9000"/>
</svg>
