<svg width="67" height="67" viewBox="0 0 67 67" fill="none" xmlns="http://www.w3.org/2000/svg">
<path d="M33.5 64C50.3447 64 64 50.3447 64 33.5C64 16.6553 50.3447 3 33.5 3C16.6553 3 3 16.6553 3 33.5C3 50.3447 16.6553 64 33.5 64Z" stroke="#FEB250" stroke-width="6"/>
<path d="M18.4686 24.0095H13.2479C11.9331 23.8548 11.9266 24.8474 12.0878 25.363C14.9495 33.5614 20.241 40.2516 22.5291 42.5719C27.1697 47.5219 32.1326 48.0504 34.0339 47.6959C35.0394 47.9279 35.5486 46.9547 35.6774 46.4391C35.6002 43.8094 36.9988 42.5719 37.7077 42.2819C39.0226 41.1991 42.5094 44.4089 44.0885 46.1491C45.3261 47.6959 46.2155 47.8249 46.5055 47.6959H51.3395C52.6543 47.7733 53.5631 46.6969 53.8531 46.1491C55.0133 44.7569 51.3073 40.6706 49.3092 38.8015C46.6022 37.1772 47.0212 35.9978 47.569 35.611C50.1213 32.2853 52.693 28.1023 53.6598 26.4265C54.6266 24.2996 53.9498 24.6863 53.4664 24.4929C53.1074 24.3493 50.4049 23.7195 49.0192 23.5262C46.1575 23.2941 45.5065 23.8162 45.5388 24.1062L42.5417 28.8435C42.3097 28.9982 41.5427 30.6482 41.1882 31.4538C40.3374 34.7023 39.1579 35.321 38.6746 35.2243C37.0503 35.8431 37.1599 29.6814 37.4177 26.5232C37.4177 23.1974 36.322 22.4949 35.7742 22.5594H31.617C28.6779 22.6366 26.7186 24.4607 26.1062 25.363C27.8078 24.7443 28.6199 25.6209 28.8132 26.1365C29.2773 28.1474 28.6199 32.5173 28.2332 34.4508C27.6918 35.9977 26.2029 34.4508 25.5262 33.4841L20.1121 24.9763C19.8801 23.9708 18.9197 23.9128 18.4686 24.0095Z" fill="#FEB250"/>
</svg>
